<svg width="632" height="571" xmlns="http://www.w3.org/2000/svg" xmlns:xlink="http://www.w3.org/1999/xlink" xml:space="preserve" overflow="hidden"><g transform="translate(-2404 -669)"><path d="M2708.76 669.061 2732.94 669.061 2769.2 693.224 2824.81 719.803 2868.32 734.3 2907.01 743.965 2919.09 753.63 2926.35 772.96 2926.35 913.104 2921.51 951.764 2911.84 988.008 2897.34 1024.25 2875.58 1060.5 2844.15 1096.74 2819.97 1118.49 2783.71 1145.07 2745.02 1166.81 2725.68 1174.06 2708.76 1171.64 2670.08 1152.31 2633.81 1128.15 2597.55 1096.74 2573.37 1070.16 2549.19 1033.92 2529.85 990.425 2517.76 939.683 2515.35 917.936 2515.35 770.544 2522.6 753.63 2534.69 743.965 2595.13 727.051 2633.81 712.554 2684.58 685.975Z" fill="#68C47B" fill-rule="evenodd"/><path d="M2542.13 1073.12 2554.21 1073.12 2588.06 1109.21 2609.82 1130.86 2650.92 1159.73 2689.6 1181.38 2708.94 1188.6 2735.54 1188.6 2776.64 1169.35 2822.57 1138.08 2858.84 1104.4 2878.18 1085.15 2887.85 1073.12 2909.61 1075.53 2962.79 1089.96 3001.48 1106.8 3023.23 1123.64 3032.9 1135.67 3035.32 1154.92 3025.65 1171.76 3008.73 1186.19 2967.63 1205.44 2907.19 1222.28 2849.16 1231.9 2798.39 1236.71 2750.04 1239.12 2692.02 1239.12 2614.66 1234.31 2544.54 1224.69 2493.77 1212.66 2447.84 1195.82 2423.66 1181.38 2406.74 1162.14 2404.32 1157.32 2404.32 1138.08 2418.83 1118.83 2452.67 1099.58 2491.36 1085.15Z" fill="#68C47B" fill-rule="evenodd"/><path d="M2803.19 833.085 2817.69 837.919 2824.94 845.169 2827.36 857.252 2820.11 871.752 2800.77 891.085 2783.84 910.419 2747.58 949.085 2725.82 973.252 2699.23 1002.25 2689.56 1007.09 2677.47 1004.67 2633.95 961.169 2617.03 941.835 2609.78 934.585 2607.36 920.086 2614.61 908.002 2621.87 903.169 2636.37 903.169 2655.71 920.086 2682.31 949.085 2691.98 949.085 2735.49 900.752 2764.5 869.335 2786.26 845.169 2795.93 835.502Z" fill="#FBF9FA" fill-rule="evenodd"/></g></svg>