<svg width="632" height="579" xmlns="http://www.w3.org/2000/svg" xmlns:xlink="http://www.w3.org/1999/xlink" xml:space="preserve" overflow="hidden"><defs><clipPath id="clip0"><rect x="164" y="1089" width="632" height="579"/></clipPath></defs><g clip-path="url(#clip0)" transform="translate(-164 -1089)"><path d="M168.485 1589.96C139.332 1559.27 260.718 1526.91 290.41 1530.24L648.204 1533.68C688.216 1531.21 816.729 1566.86 793.13 1589.96 768.671 1624.24 653.298 1668 480.807 1668 308.317 1668 197.638 1620.66 168.485 1589.96Z" fill="#E2F0D9" fill-rule="evenodd"/><path d="M273 1278 481 1122 689 1278 689 1486C689 1508.1 672.101 1525 650 1525L312 1525C289.899 1525 273 1508.1 273 1486L273 1278Z" fill="#A9D18E" fill-rule="evenodd"/><path d="M220 1337 480 1103 740 1337" stroke="#E2F0D9" stroke-width="27.5" stroke-linecap="round" stroke-linejoin="round" stroke-miterlimit="10" fill="none" fill-rule="evenodd"/><path d="M377 1356C377 1298.56 423.562 1252 481 1252 538.438 1252 585 1298.56 585 1356 585 1413.44 538.438 1460 481 1460 423.562 1460 377 1413.44 377 1356Z" fill="#FFFFFF" fill-rule="evenodd"/><path d="M32.0006 0 32.0006 143M0 46.0522C0 31.8324 14.0807 20.1992 32.0006 20.1992 49.9206 20.1992 63.9999 31.8324 63.9999 46.0522 63.9999 60.2706 52.4793 68.0265 32.0006 71.9051 11.5193 75.7824 0 83.5382 0 97.758 0 111.976 14.0807 123.611 32.0006 123.611 49.9206 123.611 63.9999 111.976 63.9999 97.758" stroke="#000000" stroke-width="6.1875" stroke-linecap="round" stroke-linejoin="round" stroke-miterlimit="10" fill="none" fill-rule="evenodd" transform="matrix(1 0 0 -1 448 1428)"/></g></svg>